<?xml version="1.0" standalone="no"?>
<!DOCTYPE svg PUBLIC "-//W3C//DTD SVG 20010904//EN"
 "http://www.w3.org/TR/2001/REC-SVG-20010904/DTD/svg10.dtd">
<svg version="1.0" xmlns="http://www.w3.org/2000/svg"
 width="172.000000pt" height="194.000000pt" viewBox="0 0 172.000000 194.000000"
 preserveAspectRatio="xMidYMid meet">

<g transform="translate(0.000000,194.000000) scale(0.100000,-0.100000)"
fill="#000000" stroke="none">
<path d="M478 1414 c-5 -4 -8 -197 -8 -429 l0 -422 38 -7 c20 -3 65 -6 100 -6
l62 0 0 280 0 280 73 -1 c39 -1 62 -4 50 -6 -21 -4 -23 -10 -23 -62 l0 -58 38
-7 c20 -3 63 -6 95 -6 l57 0 0 74 0 73 -35 6 c-19 3 -51 3 -70 0 l-35 -6 0 70
0 70 -37 6 c-21 4 -55 4 -75 0 l-38 -6 0 71 c0 40 -5 74 -11 78 -16 10 -173
17 -181 8z"/>
<path d="M1060 1203 l0 -220 -75 -13 -75 -13 0 -62 0 -62 38 -7 c20 -3 66 -7
102 -7 36 -1 53 -4 38 -6 l-28 -4 0 -123 0 -123 38 -7 c20 -3 65 -6 100 -6
l62 0 0 418 c0 229 -4 423 -9 431 -6 9 -38 15 -100 19 l-91 5 0 -220z"/>
</g>
</svg>
